<svg id="Laag_1" data-name="Laag 1" xmlns="http://www.w3.org/2000/svg" viewBox="0 0 2256.96 2305.09"><defs><style>.cls-1,.cls-11{fill:#1d1d1b;}.cls-2{fill:#fff;}.cls-3{fill:#ff9703;}.cls-4{fill:#5c2aeb;}.cls-5{fill:#ff01e5;}.cls-6{fill:#0d8aff;}.cls-7{fill:#fffd4a;}.cls-8{fill:#03ff66;}.cls-9{fill:#1dcdeb;}.cls-10{fill:#ff00e6;}.cls-11{opacity:0;}.cls-12{fill:lime;}.cls-13{fill:blue;}.cls-14{fill:#fe0;}.cls-15{fill:red;}.cls-16{fill:#00ffea;}.cls-17{fill:#f0f;}.cls-18{fill:#2319ff;}.cls-19{fill:#ffd70d;}.cls-20{fill:#ebc846;}.cls-21{fill:#e61283;}.cls-22{fill:#46ebe8;}.cls-23{fill:#616ceb;}</style></defs><title>Brand-UXUI-Symbol</title><path class="cls-1" d="M1081.73,6.17h85a0,0,0,0,1,0,0V48.69a42.52,42.52,0,0,1-42.52,42.52h0a42.52,42.52,0,0,1-42.52-42.52V6.17a0,0,0,0,1,0,0Z"/><polygon class="cls-1" points="1224.55 7.09 1310.13 7.09 1267.63 47.78 1224.55 7.09"/><polygon class="cls-1" points="1267.43 50.54 1224.72 92.13 1310.13 92.13 1267.43 50.54"/><polygon class="cls-1" points="1141.97 147.89 1165.95 168.56 1165.95 210.69 1141.97 232.93 1141.97 147.89"/><polygon class="cls-1" points="1106.54 232.93 1081.73 210.8 1081.73 168.67 1106.54 147.89 1106.54 232.93"/><path class="cls-1" d="M1225.09,147.89h85a0,0,0,0,1,0,0v42.52a42.52,42.52,0,0,1-42.52,42.52h0a42.52,42.52,0,0,1-42.52-42.52V147.89A0,0,0,0,1,1225.09,147.89Z"/><path class="cls-1" d="M629.24,6.16h85a0,0,0,0,1,0,0V48.68A42.52,42.52,0,0,1,671.75,91.2h0a42.52,42.52,0,0,1-42.52-42.52V6.16A0,0,0,0,1,629.24,6.16Z"/><polygon class="cls-1" points="772.05 7.07 857.64 7.07 815.13 47.77 772.05 7.07"/><polygon class="cls-1" points="814.93 50.53 772.23 92.11 857.64 92.11 814.93 50.53"/><path class="cls-1" d="M190.09,422.43l-8.9-7.41a44.23,44.23,0,0,1-15.91-34h0c9.45-8.47,24.81-2,24.81,10.46Z" transform="translate(463.95 -189.5)"/><path class="cls-1" d="M772.6,147.87h85a0,0,0,0,1,0,0v42.52a42.52,42.52,0,0,1-42.52,42.52h0a42.52,42.52,0,0,1-42.52-42.52V147.87A0,0,0,0,1,772.6,147.87Z"/><circle class="cls-1" cx="671.75" cy="158.52" r="17.72"/><path class="cls-1" d="M225.52,422.43l8.89-7.41a44.23,44.23,0,0,0,15.91-34h0c-9.45-8.47-24.8-2-24.8,10.46Z" transform="translate(463.95 -189.5)"/><path class="cls-1" d="M1534.23,6.17h85a0,0,0,0,1,0,0V48.69a42.52,42.52,0,0,1-42.52,42.52h0a42.52,42.52,0,0,1-42.52-42.52V6.17A0,0,0,0,1,1534.23,6.17Z"/><polygon class="cls-1" points="1677.05 7.09 1762.63 7.09 1720.13 47.78 1677.05 7.09"/><polygon class="cls-1" points="1719.92 50.54 1677.22 92.13 1762.63 92.13 1719.92 50.54"/><path class="cls-1" d="M1677.59,147.89h85a0,0,0,0,1,0,0v42.52a42.52,42.52,0,0,1-42.52,42.52h0a42.52,42.52,0,0,1-42.52-42.52V147.89a0,0,0,0,1,0,0Z"/><path class="cls-1" d="M1095.27,342.34a42.53,42.53,0,0,0,0,76.41Z" transform="translate(463.95 -189.5)"/><path class="cls-1" d="M1132.62,342.34v76.41a42.53,42.53,0,0,0,0-76.41Z" transform="translate(463.95 -189.5)"/><path class="cls-1" d="M1988.64,0h85a0,0,0,0,1,0,0V42.52A42.52,42.52,0,0,1,2031.16,85h0a42.52,42.52,0,0,1-42.52-42.52V0a0,0,0,0,1,0,0Z"/><polygon class="cls-1" points="2131.46 0.91 2217.04 0.91 2174.54 41.61 2131.46 0.91"/><polygon class="cls-1" points="2174.33 44.37 2131.63 85.95 2217.04 85.95 2174.33 44.37"/><path class="cls-1" d="M2132,141.72h85a0,0,0,0,1,0,0v42.52a42.52,42.52,0,0,1-42.52,42.52h0A42.52,42.52,0,0,1,2132,184.24V141.72a0,0,0,0,1,0,0Z"/><path class="cls-1" d="M1546.62,331.22c-14.12,7.69-23.85,23.84-23.85,42.52s9.73,34.82,23.85,42.52Z" transform="translate(463.95 -189.5)"/><path class="cls-1" d="M1584,331.22v85c14.12-7.7,23.84-23.84,23.84-42.52S1598.09,338.91,1584,331.22Z" transform="translate(463.95 -189.5)"/><path d="M1078.42,473.31h85a0,0,0,0,1,0,0v42.52a42.52,42.52,0,0,1-42.52,42.52h0a42.52,42.52,0,0,1-42.52-42.52V473.31A0,0,0,0,1,1078.42,473.31Z"/><polygon points="1216.61 473.31 1301.65 473.31 1259.13 515.83 1216.61 473.31"/><polygon points="1259.13 515.83 1216.61 558.35 1301.65 558.35 1259.13 515.83"/><path d="M1216.61,611.49h85a0,0,0,0,1,0,0V654a42.52,42.52,0,0,1-42.52,42.52h0A42.52,42.52,0,0,1,1216.61,654V611.49A0,0,0,0,1,1216.61,611.49Z"/><path d="M611.88,843.07a42.53,42.53,0,0,0,24.8,38.66V804.42A42.53,42.53,0,0,0,611.88,843.07Zm57.75-39.69v79.39a42.51,42.51,0,0,0,0-79.39Z" transform="translate(463.95 -189.5)"/><rect class="cls-1" x="591.24" y="443.65" width="286.09" height="287.89"/><path class="cls-2" d="M622.4,476h85a0,0,0,0,1,0,0V518.5A42.52,42.52,0,0,1,664.92,561h0A42.52,42.52,0,0,1,622.4,518.5V476A0,0,0,0,1,622.4,476Z"/><polygon class="cls-2" points="760.59 475.98 845.63 475.98 803.11 518.5 760.59 475.98"/><polygon class="cls-2" points="803.11 518.5 760.59 561.02 845.63 561.02 803.11 518.5"/><path class="cls-2" d="M760.59,614.17h85a0,0,0,0,1,0,0v42.52a42.52,42.52,0,0,1-42.52,42.52h0a42.52,42.52,0,0,1-42.52-42.52V614.17a0,0,0,0,1,0,0Z"/><path class="cls-2" d="M155.85,845.75a42.52,42.52,0,0,0,24.8,38.65V807.1A42.52,42.52,0,0,0,155.85,845.75Zm57.76-39.7v79.39a42.52,42.52,0,0,0,0-79.39Z" transform="translate(463.95 -189.5)"/><path class="cls-3" d="M809.39,2007.26h85a0,0,0,0,1,0,0v42.52a42.52,42.52,0,0,1-42.52,42.52h0a42.52,42.52,0,0,1-42.52-42.52v-42.52a0,0,0,0,1,0,0Z"/><polygon class="cls-4" points="947.58 2007.26 1032.61 2007.26 990.1 2049.78 947.58 2007.26"/><polygon class="cls-4" points="990.1 2049.78 947.58 2092.3 1032.61 2092.3 990.1 2049.78"/><path class="cls-5" d="M947.58,2145.45h85a0,0,0,0,1,0,0V2188a42.52,42.52,0,0,1-42.52,42.52h0A42.52,42.52,0,0,1,947.58,2188v-42.52a0,0,0,0,1,0,0Z"/><path class="cls-6" d="M342.84,2377a42.52,42.52,0,0,0,24.8,38.65v-77.3A42.52,42.52,0,0,0,342.84,2377Zm57.76-39.7v79.39a42.52,42.52,0,0,0,0-79.39Z" transform="translate(463.95 -189.5)"/><rect class="cls-3" x="3.9" y="1794.46" width="85.02" height="85.02"/><rect class="cls-5" x="199.88" y="1794.46" width="85.02" height="85.02"/><rect class="cls-4" x="97.2" y="1794.46" width="85.02" height="85.02"/><rect class="cls-6" x="297.08" y="1794.46" width="85.02" height="85.02"/><rect class="cls-7" x="3.9" y="1912.46" width="85.02" height="85.02"/><rect class="cls-8" x="199.88" y="1912.46" width="85.02" height="85.02"/><rect class="cls-9" x="97.2" y="1912.46" width="85.02" height="85.02"/><rect class="cls-10" x="297.08" y="1912.46" width="85.02" height="85.02"/><rect class="cls-1" x="1927.43" y="1927.73" width="329.53" height="329.53"/><path class="cls-7" d="M1981.88,1980.78h85a0,0,0,0,1,0,0v42.52a42.52,42.52,0,0,1-42.52,42.52h0a42.52,42.52,0,0,1-42.52-42.52v-42.52a0,0,0,0,1,0,0Z"/><polygon class="cls-9" points="2120.07 1980.78 2205.11 1980.78 2162.59 2023.3 2120.07 1980.78"/><polygon class="cls-9" points="2162.59 2023.3 2120.07 2065.82 2205.11 2065.82 2162.59 2023.3"/><path class="cls-8" d="M2120.07,2119h85a0,0,0,0,1,0,0v42.52a42.52,42.52,0,0,1-42.52,42.52h0a42.52,42.52,0,0,1-42.52-42.52V2119A0,0,0,0,1,2120.07,2119Z"/><path class="cls-10" d="M1515.33,2350.55a42.51,42.51,0,0,0,24.81,38.65v-77.3A42.51,42.51,0,0,0,1515.33,2350.55Zm57.76-39.69v79.39a42.52,42.52,0,0,0,0-79.39Z" transform="translate(463.95 -189.5)"/><rect class="cls-11" x="1109.35" y="1927.73" width="329.53" height="329.53"/><path class="cls-12" d="M1163.8,1980.78h85a0,0,0,0,1,0,0v42.52a42.52,42.52,0,0,1-42.52,42.52h0a42.52,42.52,0,0,1-42.52-42.52v-42.52A0,0,0,0,1,1163.8,1980.78Z"/><polygon class="cls-13" points="1301.99 1980.78 1387.03 1980.78 1344.51 2023.3 1301.99 1980.78"/><polygon class="cls-13" points="1344.51 2023.3 1301.99 2065.82 1387.03 2065.82 1344.51 2023.3"/><path class="cls-14" d="M1302,2119h85a0,0,0,0,1,0,0v42.52a42.52,42.52,0,0,1-42.52,42.52h0a42.52,42.52,0,0,1-42.52-42.52V2119A0,0,0,0,1,1302,2119Z"/><path class="cls-15" d="M699.85,2350.23a42.52,42.52,0,0,0,24.8,38.65v-77.3A42.52,42.52,0,0,0,699.85,2350.23Zm57.75-39.69v79.39a42.51,42.51,0,0,0,0-79.39Z" transform="translate(463.95 -189.5)"/><rect class="cls-1" x="1515.62" y="1927.73" width="329.53" height="329.53"/><path class="cls-7" d="M1570.07,1980.78h85a0,0,0,0,1,0,0v42.52a42.52,42.52,0,0,1-42.52,42.52h0a42.52,42.52,0,0,1-42.52-42.52v-42.52A0,0,0,0,1,1570.07,1980.78Z"/><polygon class="cls-9" points="1708.26 1980.78 1793.29 1980.78 1750.77 2023.3 1708.26 1980.78"/><polygon class="cls-9" points="1750.77 2023.3 1708.26 2065.82 1793.29 2065.82 1750.77 2023.3"/><path class="cls-8" d="M1708.25,2119h85a0,0,0,0,1,0,0v42.52a42.52,42.52,0,0,1-42.52,42.52h0a42.52,42.52,0,0,1-42.52-42.52V2119A0,0,0,0,1,1708.25,2119Z"/><path class="cls-10" d="M1103.52,2350.55a42.52,42.52,0,0,0,24.8,38.65v-77.3A42.52,42.52,0,0,0,1103.52,2350.55Zm57.76-39.69v79.39a42.52,42.52,0,0,0,0-79.39Z" transform="translate(463.95 -189.5)"/><rect class="cls-16" x="10.78" y="2017.89" width="85.02" height="85.02"/><rect class="cls-17" x="206.76" y="2017.89" width="85.02" height="85.02"/><rect class="cls-18" x="104.08" y="2017.89" width="85.02" height="85.02"/><rect class="cls-19" x="303.96" y="2017.89" width="85.02" height="85.02"/><rect class="cls-20" x="10.78" y="2123.31" width="85.02" height="85.02"/><rect class="cls-21" x="206.76" y="2123.31" width="85.02" height="85.02"/><rect class="cls-22" x="104.08" y="2123.31" width="85.02" height="85.02"/><rect class="cls-23" x="303.96" y="2123.31" width="85.02" height="85.02"/><rect class="cls-15" y="2220.07" width="85.02" height="85.02"/><rect class="cls-13" x="195.98" y="2220.07" width="85.02" height="85.02"/><rect class="cls-12" x="93.3" y="2220.07" width="85.02" height="85.02"/><rect class="cls-14" x="293.18" y="2220.07" width="85.02" height="85.02"/><rect class="cls-1" x="1509.07" y="1103.43" width="397.01" height="397.01"/><path class="cls-2" d="M1593.13,1186h88.22a0,0,0,0,1,0,0v44.11a44.11,44.11,0,0,1-44.11,44.11h0a44.11,44.11,0,0,1-44.11-44.11V1186a0,0,0,0,1,0,0Z"/><polygon class="cls-2" points="1736.49 1274.27 1736.49 1186.04 1780.6 1230.15 1736.49 1274.27"/><polygon class="cls-2" points="1780.6 1230.15 1824.71 1274.27 1824.71 1186.04 1780.6 1230.15"/><path class="cls-2" d="M1736.49,1329.4h88.22a0,0,0,0,1,0,0v44.11a44.11,44.11,0,0,1-44.11,44.11h0a44.11,44.11,0,0,1-44.11-44.11V1329.4A0,0,0,0,1,1736.49,1329.4Z"/><path class="cls-2" d="M1126.48,1562.56a44.11,44.11,0,0,0,25.74,40.1v-80.2A44.11,44.11,0,0,0,1126.48,1562.56Zm59.92-41.18v82.36a44.11,44.11,0,0,0,0-82.36Z" transform="translate(463.95 -189.5)"/><path class="cls-1" d="M1985.43,455.65h83.71a0,0,0,0,1,0,0v47.88a35.83,35.83,0,0,1-35.83,35.83h-12a35.83,35.83,0,0,1-35.83-35.83V455.65A0,0,0,0,1,1985.43,455.65Z"/><polygon class="cls-1" points="2121.46 539.36 2121.46 455.65 2163.31 497.5 2121.46 539.36"/><polygon class="cls-1" points="2163.31 497.5 2205.17 539.36 2205.17 455.65 2163.31 497.5"/><path class="cls-1" d="M2121.46,591.68h83.71a0,0,0,0,1,0,0v47.88a35.83,35.83,0,0,1-35.83,35.83h-12a35.83,35.83,0,0,1-35.83-35.83V591.68a0,0,0,0,1,0,0Z"/><path class="cls-1" d="M1518.92,822.6a41.86,41.86,0,0,0,24.42,38v-76.1A41.86,41.86,0,0,0,1518.92,822.6Zm56.86-39.08v78.16a41.87,41.87,0,0,0,0-78.16Z" transform="translate(463.95 -189.5)"/><rect class="cls-1" x="895.58" y="1103.43" width="396.41" height="396.41"/><path class="cls-2" d="M983.47,1189.93h85a0,0,0,0,1,0,0v42.52A42.52,42.52,0,0,1,1026,1275h0a42.52,42.52,0,0,1-42.52-42.52v-42.52a0,0,0,0,1,0,0Z"/><polygon class="cls-2" points="1121.66 1189.93 1206.7 1189.93 1164.18 1232.45 1121.66 1189.93"/><polygon class="cls-2" points="1164.18 1232.45 1121.66 1274.97 1206.7 1274.97 1164.18 1232.45"/><path class="cls-2" d="M1121.66,1328.12h85a0,0,0,0,1,0,0v42.52a42.52,42.52,0,0,1-42.52,42.52h0a42.52,42.52,0,0,1-42.52-42.52v-42.52A0,0,0,0,1,1121.66,1328.12Z"/><path class="cls-2" d="M516.92,1559.7a42.52,42.52,0,0,0,24.81,38.65V1521A42.52,42.52,0,0,0,516.92,1559.7Zm57.76-39.7v79.39a42.52,42.52,0,0,0,0-79.39Z" transform="translate(463.95 -189.5)"/><path d="M1510.42,474.31h85a0,0,0,0,1,0,0v42.52a42.52,42.52,0,0,1-42.52,42.52h0a42.52,42.52,0,0,1-42.52-42.52V474.31A0,0,0,0,1,1510.42,474.31Z"/><polygon points="1648.61 474.31 1733.65 474.31 1691.13 516.83 1648.61 474.31"/><polygon points="1691.13 516.83 1648.61 559.35 1733.65 559.35 1691.13 516.83"/><path d="M1648.61,612.49h85a0,0,0,0,1,0,0V655a42.52,42.52,0,0,1-42.52,42.52h0A42.52,42.52,0,0,1,1648.61,655V612.49A0,0,0,0,1,1648.61,612.49Z"/><path d="M1116.24,814.1a42.54,42.54,0,0,0-47.36-8.78L1125,861.46A42.53,42.53,0,0,0,1116.24,814.1Zm-60.13,60.13A42.51,42.51,0,0,0,1101,884l-54.66-54.67A42.52,42.52,0,0,0,1056.11,874.23Z" transform="translate(463.95 -189.5)"/></svg>