<svg id="Laag_1" data-name="Laag 1" xmlns="http://www.w3.org/2000/svg" viewBox="0 0 396.41 396.41"><defs><style>.cls-1{fill:#1d1d1b;}.cls-2{fill:#fff;}</style></defs><title>Brand-UXUI-Symbol</title><rect class="cls-1" width="396.41" height="396.41"/><path class="cls-2" d="M87.89,86.5h85V129a42.51,42.51,0,0,1-42.47,42.55h0A42.52,42.52,0,0,1,87.9,129.05h0V86.53h0Z"/><polygon class="cls-2" points="226.08 86.5 311.12 86.5 268.6 129.02 226.08 86.5"/><polygon class="cls-2" points="268.6 129.02 226.08 171.54 311.12 171.54 268.6 129.02"/><path class="cls-2" d="M226.08,224.69h85v42.52a42.52,42.52,0,0,1-42.52,42.52h0A42.52,42.52,0,0,1,226,267.21h0V224.69Z"/><path class="cls-2" d="M85.29,266.77a42.5,42.5,0,0,0,24.81,38.65V228.07A42.52,42.52,0,0,0,85.29,266.77Zm57.76-39.7v79.39a42.52,42.52,0,0,0,0-79.39Z"/></svg>